<?xml version="1.0" encoding="utf-8"?>
<!-- Generator: Adobe Illustrator 27.5.0, SVG Export Plug-In . SVG Version: 6.00 Build 0)  -->
<svg version="1.1" id="Camada_1" xmlns="http://www.w3.org/2000/svg" xmlns:xlink="http://www.w3.org/1999/xlink" x="0px" y="0px"
	 viewBox="0 0 24 24" style="enable-background:new 0 0 24 24;" xml:space="preserve">
<style type="text/css">
</style>
<path class="st0" fill="#fff" d="M21,10.6c1.3,0,1.7-0.3,1.8-0.6c0.6-0.8-0.3-2.2-2.5-3.3c0.8-1.6,1.4-3,1.7-4c0.2-0.6,0.1-0.9,0-0.9
	C22,2.2,21.4,4,19.8,6.4c-1.2-0.5-2.7-0.9-4.4-1.1c-0.4-0.8-1.6-3-2.8-4.2C11.8,0.3,11.2,0,10.7,0C10-0.1,9.6,0.3,9.4,0.5
	C8.6,1.4,8.3,2.8,8.2,4.5C7.9,3.9,7.4,3.3,6.9,3.3h0c-1-0.2-1.8,1.4-1.7,3.8C3.4,7.1,1.9,7.3,0.8,7.6C0.4,7.7,0.1,7.9,0,8
	c0,0,1.1-0.4,5.2-0.4c0.2,2.5,1.4,4.8,1.2,4.4c-0.5,0.7-1.8,2.9-2.2,4.6c-0.3,1.1-0.2,1.8,0,2.2c0.3,0.6,0.8,0.8,1.1,0.9
	c1.2,0.3,2.6-0.2,4.1-1C9,19.2,8.8,20,9,20.5c0.3,0.9,2.1,0.9,4.1-0.4c0.9,1.5,1.9,2.7,2.6,3.5c0.1,0.1,0.3,0.2,0.4,0.3
	c0.2,0.1,0.4,0.2,0.4,0.2c-0.4-0.3-1.6-1.8-2.9-4.3c1-0.8,2.1-1.8,3.2-3.2c5.8,0.2,6.7-1.2,6.9-1.5C24.4,14,23.9,12.3,21,10.6z
	 M17.4,15.6c1.1-1.8,1.4-3.2,1.4-4.3c1.3,0.8,2.2,1.8,2.3,2.8C21.1,14.6,20.7,15.4,17.4,15.6z M10.2,18.2c0.5-0.3,0.9-0.6,1.4-1
	c0.3,0.6,0.6,1.2,1,1.8C10.6,20,9.3,19.6,10.2,18.2z M20.3,10.1c-0.5-0.3-1-0.5-1.5-0.7c0.4-0.6,0.7-1.1,1.1-1.7
	C21.6,8.8,22,10.2,20.3,10.1z M13.1,18.7c-0.3-0.5-0.5-1.1-0.8-1.7c2,0.1,2.9-0.9,3-1c0,0-1.2,0.7-2.9,0.6c1.4-1.2,2.8-2.5,4-3.9
	c0.4-0.5,0.8-1,1.2-1.5c0,0-0.1-0.1-0.8-0.6c-2.4,2.8-4.8,4.6-6.2,5.4c-1-0.5-1.9-1.5-2.6-2.9C7,11.3,6.5,9.3,6.4,7.7
	c0.6,0,1.2,0.1,1.8,0.2c-1,1.7-0.7,3-0.6,3c0,0,0-1.4,0.9-2.8c0.4,2.5,1.1,4.9,2.1,7.2c0,0,0.1,0,0.9-0.4c-1.2-3.5-1.6-6.5-1.6-8.1
	c0.9-0.6,2.3-0.9,3.8-0.8c2.1,0.1,4.1,0.7,5.5,1.4c-0.3,0.5-0.7,1-1.1,1.5c-1-1.8-2.2-2.1-2.3-2c0,0,1.2,0.7,1.9,2.2
	c-1.8-0.6-3.6-1.1-5.4-1.5c-0.6-0.1-1.2-0.2-1.8-0.3c0,0-0.1,0.1-0.1,1c3.7,0.7,6.4,1.9,7.8,2.7c0,1.1-0.3,2.4-1.2,3.7
	C15.9,16.4,14.4,17.8,13.1,18.7z M14.4,5.2c-2.1-0.1-3.5,0.3-4.4,1c0.1-2.5,1-3.6,1.8-3.5C12.5,2.4,14.3,5.1,14.4,5.2z M8.2,5.4
	c0,0.6,0.1,1.2,0.1,1.7C7.7,7.1,7,7,6.4,7c0,0.1,0-2.4,1.2-2.3h0C7.8,4.8,8.1,5,8.2,5.4z M6.9,13c1,1.9,2,2.8,3.1,3.4
	c-2.2,1.2-3.6,0.9-4,0.2C6,16.5,5.5,15.8,6.9,13z"/>
</svg>
